<svg width="364" height="430" viewBox="0 0 364 430" fill="none" xmlns="http://www.w3.org/2000/svg">
<g clip-path="url(#clip0_3_9862)">
<rect width="364" height="430" rx="20" fill="#F9F8FE"/>
<rect x="20" y="98" width="353" height="351" rx="10" fill="#E9EFFC"/>
<rect x="38" y="116" width="326" height="314" fill="#F5FAFA"/>
<g filter="url(#filter0_d_3_9862)">
<g clip-path="url(#clip1_3_9862)">
<rect x="58" y="64" width="267" height="174" rx="10" fill="#2563EB"/>
<path d="M324.5 64.5L54.5 239H324.5V64.5Z" fill="#6A98FF"/>
<rect x="78" y="84" width="42" height="42" rx="10" fill="#FF8B43"/>
<rect x="89" y="95" width="20" height="20" rx="4" fill="#2563EB"/>
<path d="M104 111.667V103.333" stroke="#F9F8FE" stroke-width="1.66667" stroke-linecap="round" stroke-linejoin="round"/>
<path d="M99 111.667V98.3335" stroke="#F9F8FE" stroke-width="1.66667" stroke-linecap="round" stroke-linejoin="round"/>
<path d="M94 111.667V106.667" stroke="#F9F8FE" stroke-width="1.66667" stroke-linecap="round" stroke-linejoin="round"/>
<path d="M80.397 185V163.182H93.9268V166.016H83.6889V172.663H92.9574V175.487H83.6889V185H80.397ZM103.411 185.33C101.877 185.33 100.538 184.979 99.3947 184.276C98.2512 183.572 97.3635 182.589 96.7314 181.325C96.0993 180.06 95.7832 178.583 95.7832 176.893C95.7832 175.195 96.0993 173.711 96.7314 172.44C97.3635 171.168 98.2512 170.181 99.3947 169.478C100.538 168.775 101.877 168.423 103.411 168.423C104.945 168.423 106.284 168.775 107.427 169.478C108.571 170.181 109.459 171.168 110.091 172.44C110.723 173.711 111.039 175.195 111.039 176.893C111.039 178.583 110.723 180.06 110.091 181.325C109.459 182.589 108.571 183.572 107.427 184.276C106.284 184.979 104.945 185.33 103.411 185.33ZM103.422 182.656C104.416 182.656 105.24 182.393 105.893 181.868C106.547 181.342 107.03 180.643 107.342 179.769C107.662 178.896 107.822 177.933 107.822 176.882C107.822 175.838 107.662 174.879 107.342 174.006C107.03 173.125 106.547 172.418 105.893 171.886C105.24 171.353 104.416 171.087 103.422 171.087C102.42 171.087 101.589 171.353 100.929 171.886C100.275 172.418 99.7889 173.125 99.4693 174.006C99.1568 174.879 99.0005 175.838 99.0005 176.882C99.0005 177.933 99.1568 178.896 99.4693 179.769C99.7889 180.643 100.275 181.342 100.929 181.868C101.589 182.393 102.42 182.656 103.422 182.656ZM117.78 163.182V185H114.594V163.182H117.78ZM125.251 163.182V185H122.065V163.182H125.251ZM136.429 185.33C134.895 185.33 133.556 184.979 132.412 184.276C131.269 183.572 130.381 182.589 129.749 181.325C129.117 180.06 128.801 178.583 128.801 176.893C128.801 175.195 129.117 173.711 129.749 172.44C130.381 171.168 131.269 170.181 132.412 169.478C133.556 168.775 134.895 168.423 136.429 168.423C137.963 168.423 139.301 168.775 140.445 169.478C141.588 170.181 142.476 171.168 143.108 172.44C143.74 173.711 144.056 175.195 144.056 176.893C144.056 178.583 143.74 180.06 143.108 181.325C142.476 182.589 141.588 183.572 140.445 184.276C139.301 184.979 137.963 185.33 136.429 185.33ZM136.439 182.656C137.434 182.656 138.257 182.393 138.911 181.868C139.564 181.342 140.047 180.643 140.36 179.769C140.679 178.896 140.839 177.933 140.839 176.882C140.839 175.838 140.679 174.879 140.36 174.006C140.047 173.125 139.564 172.418 138.911 171.886C138.257 171.353 137.434 171.087 136.439 171.087C135.438 171.087 134.607 171.353 133.946 171.886C133.293 172.418 132.806 173.125 132.487 174.006C132.174 174.879 132.018 175.838 132.018 176.882C132.018 177.933 132.174 178.896 132.487 179.769C132.806 180.643 133.293 181.342 133.946 181.868C134.607 182.393 135.438 182.656 136.439 182.656ZM150.662 185L145.846 168.636H149.138L152.345 180.653H152.505L155.722 168.636H159.014L162.21 180.6H162.37L165.555 168.636H168.847L164.042 185H160.793L157.469 173.185H157.224L153.9 185H150.662ZM178.424 185.33C176.812 185.33 175.424 184.986 174.259 184.297C173.101 183.601 172.206 182.624 171.574 181.367C170.949 180.103 170.637 178.622 170.637 176.925C170.637 175.249 170.949 173.771 171.574 172.493C172.206 171.214 173.087 170.217 174.216 169.499C175.353 168.782 176.681 168.423 178.201 168.423C179.124 168.423 180.019 168.576 180.885 168.881C181.752 169.187 182.529 169.666 183.218 170.32C183.907 170.973 184.451 171.822 184.848 172.866C185.246 173.903 185.445 175.163 185.445 176.648V177.777H172.437V175.391H182.324C182.324 174.553 182.153 173.81 181.812 173.164C181.471 172.511 180.992 171.996 180.374 171.619C179.763 171.243 179.046 171.055 178.222 171.055C177.327 171.055 176.546 171.275 175.878 171.715C175.218 172.148 174.706 172.717 174.344 173.42C173.989 174.116 173.811 174.872 173.811 175.689V177.553C173.811 178.647 174.003 179.577 174.387 180.344C174.777 181.112 175.321 181.697 176.017 182.102C176.713 182.5 177.526 182.699 178.456 182.699C179.06 182.699 179.61 182.614 180.108 182.443C180.605 182.266 181.034 182.003 181.397 181.655C181.759 181.307 182.036 180.877 182.228 180.366L185.243 180.909C185.001 181.797 184.568 182.575 183.943 183.242C183.325 183.903 182.547 184.418 181.61 184.787C180.679 185.149 179.618 185.33 178.424 185.33ZM188.979 185V168.636H192.058V171.236H192.229C192.527 170.355 193.052 169.663 193.805 169.158C194.565 168.647 195.425 168.391 196.383 168.391C196.582 168.391 196.817 168.398 197.086 168.413C197.363 168.427 197.58 168.445 197.736 168.466V171.513C197.608 171.477 197.381 171.438 197.055 171.396C196.728 171.346 196.401 171.321 196.074 171.321C195.322 171.321 194.65 171.481 194.061 171.8C193.479 172.113 193.017 172.55 192.676 173.111C192.335 173.665 192.165 174.297 192.165 175.007V185H188.979ZM212.755 172.631L209.868 173.143C209.747 172.773 209.555 172.422 209.293 172.088C209.037 171.754 208.689 171.481 208.249 171.268C207.808 171.055 207.258 170.948 206.597 170.948C205.695 170.948 204.942 171.151 204.339 171.555C203.735 171.953 203.433 172.468 203.433 173.1C203.433 173.647 203.636 174.087 204.04 174.421C204.445 174.755 205.099 175.028 206.001 175.241L208.6 175.838C210.106 176.186 211.228 176.722 211.967 177.447C212.705 178.171 213.075 179.112 213.075 180.27C213.075 181.25 212.79 182.124 212.222 182.891C211.661 183.651 210.876 184.247 209.868 184.68C208.866 185.114 207.705 185.33 206.384 185.33C204.552 185.33 203.057 184.94 201.899 184.158C200.741 183.37 200.031 182.251 199.768 180.803L202.847 180.334C203.039 181.136 203.433 181.744 204.03 182.156C204.626 182.56 205.404 182.763 206.363 182.763C207.407 182.763 208.241 182.546 208.866 182.113C209.491 181.673 209.804 181.136 209.804 180.504C209.804 179.993 209.612 179.563 209.229 179.215C208.852 178.867 208.273 178.604 207.492 178.427L204.722 177.82C203.195 177.472 202.066 176.918 201.335 176.158C200.61 175.398 200.248 174.435 200.248 173.271C200.248 172.305 200.518 171.46 201.058 170.735C201.597 170.011 202.343 169.446 203.295 169.041C204.246 168.629 205.337 168.423 206.565 168.423C208.334 168.423 209.726 168.807 210.741 169.574C211.757 170.334 212.428 171.353 212.755 172.631Z" fill="white"/>
<path d="M83.7145 215.179C82.8622 215.179 82.0994 215.019 81.4261 214.7C80.7528 214.376 80.218 213.933 79.8217 213.37C79.4297 212.808 79.2209 212.164 79.1953 211.44H81.4964C81.5391 211.977 81.7713 212.415 82.1932 212.756C82.6151 213.093 83.1222 213.261 83.7145 213.261C84.179 213.261 84.5923 213.155 84.9545 212.942C85.3168 212.729 85.6023 212.433 85.8111 212.053C86.0199 211.674 86.1222 211.241 86.1179 210.756C86.1222 210.261 86.0178 209.822 85.8047 209.439C85.5916 209.055 85.2997 208.755 84.929 208.538C84.5582 208.316 84.1321 208.205 83.6506 208.205C83.2585 208.201 82.8729 208.273 82.4936 208.423C82.1143 208.572 81.8139 208.768 81.5923 209.011L79.451 208.659L80.1349 201.909H87.7287V203.891H82.0973L81.7202 207.362H81.7969C82.0398 207.076 82.3828 206.839 82.826 206.652C83.2692 206.46 83.755 206.364 84.2834 206.364C85.076 206.364 85.7834 206.552 86.4055 206.927C87.0277 207.298 87.5178 207.809 87.8757 208.461C88.2337 209.113 88.4126 209.859 88.4126 210.698C88.4126 211.563 88.2124 212.335 87.8118 213.012C87.4155 213.685 86.8636 214.216 86.1562 214.604C85.4531 214.987 84.6392 215.179 83.7145 215.179ZM95.3928 215.249C94.3402 215.249 93.4368 214.983 92.6825 214.45C91.9325 213.913 91.3551 213.14 90.9503 212.13C90.5497 211.116 90.3494 209.895 90.3494 208.467C90.3537 207.04 90.5561 205.825 90.9567 204.824C91.3615 203.818 91.9389 203.051 92.6889 202.523C93.4432 201.994 94.3445 201.73 95.3928 201.73C96.4411 201.73 97.3423 201.994 98.0966 202.523C98.8509 203.051 99.4283 203.818 99.8288 204.824C100.234 205.83 100.436 207.044 100.436 208.467C100.436 209.899 100.234 211.122 99.8288 212.136C99.4283 213.146 98.8509 213.918 98.0966 214.45C97.3466 214.983 96.4453 215.249 95.3928 215.249ZM95.3928 213.249C96.2109 213.249 96.8565 212.846 97.3295 212.04C97.8068 211.231 98.0455 210.04 98.0455 208.467C98.0455 207.428 97.9368 206.554 97.7195 205.847C97.5021 205.139 97.1953 204.607 96.799 204.249C96.4027 203.886 95.9339 203.705 95.3928 203.705C94.5788 203.705 93.9354 204.11 93.4624 204.92C92.9893 205.725 92.7507 206.908 92.7464 208.467C92.7422 209.511 92.8466 210.389 93.0597 211.101C93.277 211.812 93.5838 212.349 93.9801 212.712C94.3764 213.07 94.8473 213.249 95.3928 213.249ZM107.399 215.249C106.346 215.249 105.443 214.983 104.688 214.45C103.938 213.913 103.361 213.14 102.956 212.13C102.556 211.116 102.355 209.895 102.355 208.467C102.36 207.04 102.562 205.825 102.963 204.824C103.367 203.818 103.945 203.051 104.695 202.523C105.449 201.994 106.35 201.73 107.399 201.73C108.447 201.73 109.348 201.994 110.102 202.523C110.857 203.051 111.434 203.818 111.835 204.824C112.24 205.83 112.442 207.044 112.442 208.467C112.442 209.899 112.24 211.122 111.835 212.136C111.434 213.146 110.857 213.918 110.102 214.45C109.352 214.983 108.451 215.249 107.399 215.249ZM107.399 213.249C108.217 213.249 108.862 212.846 109.335 212.04C109.813 211.231 110.051 210.04 110.051 208.467C110.051 207.428 109.943 206.554 109.725 205.847C109.508 205.139 109.201 204.607 108.805 204.249C108.409 203.886 107.94 203.705 107.399 203.705C106.585 203.705 105.941 204.11 105.468 204.92C104.995 205.725 104.757 206.908 104.752 208.467C104.748 209.511 104.852 210.389 105.066 211.101C105.283 211.812 105.59 212.349 105.986 212.712C106.382 213.07 106.853 213.249 107.399 213.249ZM116.701 211.919L116.694 209.126H117.065L120.593 205.182H123.297L118.957 210.014H118.478L116.701 211.919ZM114.591 215V201.909H116.905V215H114.591ZM120.753 215L117.557 210.532L119.117 208.902L123.521 215H120.753Z" fill="white"/>
</g>
</g>
<g filter="url(#filter1_d_3_9862)">
<rect x="276" y="33" width="66" height="66" rx="10" fill="white"/>
</g>
<path d="M309 53C315.075 53 320 57.5729 320 63.2139C320 64.1807 319.851 65.1155 319.581 66.002C323.134 66.0454 326 68.9372 326 72.5C326 76.0899 323.09 79 319.5 79H298.5C294.91 79 292 76.0899 292 72.5C292 68.9375 294.866 66.0459 298.418 66.002C298.148 65.1156 298 64.1806 298 63.2139C298 57.5729 302.925 53 309 53Z" fill="#2563EB"/>
<rect x="345" y="115" width="28" height="144" rx="14" fill="#0F8CE9"/>
<path d="M139 293.5H349.5" stroke="#E7ECF3" stroke-width="2" stroke-dasharray="12 12"/>
<path d="M139 332H349.5" stroke="#E7ECF3" stroke-width="2" stroke-dasharray="12 12"/>
<path d="M139 370.5H349.5" stroke="#E7ECF3" stroke-width="2" stroke-dasharray="12 12"/>
<rect x="94.5" y="268.5" width="265" height="133" rx="8.5" stroke="#E7ECF3"/>
<rect x="146" y="321" width="18" height="64" rx="9" fill="#2563EB"/>
<rect x="191" y="289" width="18" height="64" rx="9" fill="#2563EB"/>
<rect x="236" y="303" width="18" height="64" rx="9" fill="#2563EB"/>
<rect x="281" y="321" width="18" height="64" rx="9" fill="#2563EB"/>
<rect x="326" y="294" width="18" height="64" rx="9" fill="#2563EB"/>
</g>
<defs>
<filter id="filter0_d_3_9862" x="14" y="34" width="355" height="262" filterUnits="userSpaceOnUse" color-interpolation-filters="sRGB">
<feFlood flood-opacity="0" result="BackgroundImageFix"/>
<feColorMatrix in="SourceAlpha" type="matrix" values="0 0 0 0 0 0 0 0 0 0 0 0 0 0 0 0 0 0 127 0" result="hardAlpha"/>
<feOffset dy="14"/>
<feGaussianBlur stdDeviation="22"/>
<feComposite in2="hardAlpha" operator="out"/>
<feColorMatrix type="matrix" values="0 0 0 0 0 0 0 0 0 0 0 0 0 0 0 0 0 0 0.15 0"/>
<feBlend mode="normal" in2="BackgroundImageFix" result="effect1_dropShadow_3_9862"/>
<feBlend mode="normal" in="SourceGraphic" in2="effect1_dropShadow_3_9862" result="shape"/>
</filter>
<filter id="filter1_d_3_9862" x="267" y="28" width="84" height="84" filterUnits="userSpaceOnUse" color-interpolation-filters="sRGB">
<feFlood flood-opacity="0" result="BackgroundImageFix"/>
<feColorMatrix in="SourceAlpha" type="matrix" values="0 0 0 0 0 0 0 0 0 0 0 0 0 0 0 0 0 0 127 0" result="hardAlpha"/>
<feOffset dy="4"/>
<feGaussianBlur stdDeviation="4.5"/>
<feComposite in2="hardAlpha" operator="out"/>
<feColorMatrix type="matrix" values="0 0 0 0 0 0 0 0 0 0 0 0 0 0 0 0 0 0 0.05 0"/>
<feBlend mode="normal" in2="BackgroundImageFix" result="effect1_dropShadow_3_9862"/>
<feBlend mode="normal" in="SourceGraphic" in2="effect1_dropShadow_3_9862" result="shape"/>
</filter>
<clipPath id="clip0_3_9862">
<rect width="364" height="430" rx="20" fill="white"/>
</clipPath>
<clipPath id="clip1_3_9862">
<rect x="58" y="64" width="267" height="174" rx="10" fill="white"/>
</clipPath>
</defs>
</svg>
